<mxfile host="app.diagrams.net" agent="Mozilla/5.0 (Windows NT 10.0; Win64; x64) AppleWebKit/537.36 (KHTML, like Gecko) Chrome/128.0.0.0 Safari/537.36 OPR/114.0.0.0 (Edition std-2)" version="26.0.8">
  <diagram name="Page-1" id="NigbNfESfADgSQk5eJ8K">
    <mxGraphModel dx="1441" dy="770" grid="1" gridSize="10" guides="1" tooltips="1" connect="1" arrows="1" fold="1" page="1" pageScale="1" pageWidth="850" pageHeight="1100" math="0" shadow="0">
      <root>
        <mxCell id="0" />
        <mxCell id="1" parent="0" />
        <mxCell id="k610ou3Cfi4nWN4WsVvH-12" style="edgeStyle=orthogonalEdgeStyle;rounded=0;orthogonalLoop=1;jettySize=auto;html=1;exitX=1;exitY=0.5;exitDx=0;exitDy=0;entryX=0;entryY=0.5;entryDx=0;entryDy=0;" edge="1" parent="1" source="k610ou3Cfi4nWN4WsVvH-1" target="k610ou3Cfi4nWN4WsVvH-11">
          <mxGeometry relative="1" as="geometry" />
        </mxCell>
        <mxCell id="k610ou3Cfi4nWN4WsVvH-29" style="edgeStyle=orthogonalEdgeStyle;rounded=0;orthogonalLoop=1;jettySize=auto;html=1;exitX=0.5;exitY=1;exitDx=0;exitDy=0;entryX=0.5;entryY=0;entryDx=0;entryDy=0;" edge="1" parent="1" source="k610ou3Cfi4nWN4WsVvH-1" target="k610ou3Cfi4nWN4WsVvH-28">
          <mxGeometry relative="1" as="geometry" />
        </mxCell>
        <mxCell id="k610ou3Cfi4nWN4WsVvH-1" value="Server" style="rounded=1;whiteSpace=wrap;html=1;" vertex="1" parent="1">
          <mxGeometry x="30" y="20" width="120" height="60" as="geometry" />
        </mxCell>
        <mxCell id="k610ou3Cfi4nWN4WsVvH-18" style="edgeStyle=orthogonalEdgeStyle;rounded=0;orthogonalLoop=1;jettySize=auto;html=1;exitX=1;exitY=0.5;exitDx=0;exitDy=0;entryX=0;entryY=0.5;entryDx=0;entryDy=0;" edge="1" parent="1" source="k610ou3Cfi4nWN4WsVvH-2" target="k610ou3Cfi4nWN4WsVvH-17">
          <mxGeometry relative="1" as="geometry" />
        </mxCell>
        <mxCell id="k610ou3Cfi4nWN4WsVvH-25" style="edgeStyle=orthogonalEdgeStyle;rounded=0;orthogonalLoop=1;jettySize=auto;html=1;exitX=1;exitY=0.5;exitDx=0;exitDy=0;entryX=0;entryY=0.5;entryDx=0;entryDy=0;" edge="1" parent="1" source="k610ou3Cfi4nWN4WsVvH-2" target="k610ou3Cfi4nWN4WsVvH-23">
          <mxGeometry relative="1" as="geometry" />
        </mxCell>
        <mxCell id="k610ou3Cfi4nWN4WsVvH-2" value="World Server X" style="rounded=1;whiteSpace=wrap;html=1;" vertex="1" parent="1">
          <mxGeometry x="30" y="430" width="120" height="60" as="geometry" />
        </mxCell>
        <mxCell id="k610ou3Cfi4nWN4WsVvH-9" style="edgeStyle=orthogonalEdgeStyle;rounded=0;orthogonalLoop=1;jettySize=auto;html=1;exitX=0;exitY=0.25;exitDx=0;exitDy=0;entryX=1;entryY=0.5;entryDx=0;entryDy=0;" edge="1" parent="1" source="k610ou3Cfi4nWN4WsVvH-3" target="k610ou3Cfi4nWN4WsVvH-5">
          <mxGeometry relative="1" as="geometry" />
        </mxCell>
        <mxCell id="k610ou3Cfi4nWN4WsVvH-15" style="edgeStyle=orthogonalEdgeStyle;rounded=0;orthogonalLoop=1;jettySize=auto;html=1;exitX=0;exitY=0.75;exitDx=0;exitDy=0;entryX=1;entryY=0.5;entryDx=0;entryDy=0;" edge="1" parent="1" source="k610ou3Cfi4nWN4WsVvH-3" target="k610ou3Cfi4nWN4WsVvH-14">
          <mxGeometry relative="1" as="geometry" />
        </mxCell>
        <mxCell id="k610ou3Cfi4nWN4WsVvH-21" style="edgeStyle=orthogonalEdgeStyle;rounded=0;orthogonalLoop=1;jettySize=auto;html=1;exitX=0;exitY=0.75;exitDx=0;exitDy=0;entryX=1;entryY=0.5;entryDx=0;entryDy=0;" edge="1" parent="1" source="k610ou3Cfi4nWN4WsVvH-3" target="k610ou3Cfi4nWN4WsVvH-20">
          <mxGeometry relative="1" as="geometry" />
        </mxCell>
        <mxCell id="k610ou3Cfi4nWN4WsVvH-32" style="edgeStyle=orthogonalEdgeStyle;rounded=0;orthogonalLoop=1;jettySize=auto;html=1;exitX=0;exitY=0.75;exitDx=0;exitDy=0;entryX=1;entryY=0.5;entryDx=0;entryDy=0;" edge="1" parent="1" source="k610ou3Cfi4nWN4WsVvH-3" target="k610ou3Cfi4nWN4WsVvH-31">
          <mxGeometry relative="1" as="geometry" />
        </mxCell>
        <mxCell id="k610ou3Cfi4nWN4WsVvH-35" style="edgeStyle=orthogonalEdgeStyle;rounded=0;orthogonalLoop=1;jettySize=auto;html=1;exitX=0;exitY=0.75;exitDx=0;exitDy=0;entryX=1;entryY=0.5;entryDx=0;entryDy=0;" edge="1" parent="1" source="k610ou3Cfi4nWN4WsVvH-3" target="k610ou3Cfi4nWN4WsVvH-34">
          <mxGeometry relative="1" as="geometry" />
        </mxCell>
        <mxCell id="k610ou3Cfi4nWN4WsVvH-3" value="Client" style="rounded=1;whiteSpace=wrap;html=1;" vertex="1" parent="1">
          <mxGeometry x="420" y="274" width="120" height="60" as="geometry" />
        </mxCell>
        <mxCell id="k610ou3Cfi4nWN4WsVvH-10" style="edgeStyle=orthogonalEdgeStyle;rounded=0;orthogonalLoop=1;jettySize=auto;html=1;exitX=0;exitY=0.5;exitDx=0;exitDy=0;entryX=1;entryY=0.5;entryDx=0;entryDy=0;" edge="1" parent="1" source="k610ou3Cfi4nWN4WsVvH-5" target="k610ou3Cfi4nWN4WsVvH-1">
          <mxGeometry relative="1" as="geometry" />
        </mxCell>
        <mxCell id="k610ou3Cfi4nWN4WsVvH-5" value="Client: I am connecting to the game" style="text;html=1;align=center;verticalAlign=middle;whiteSpace=wrap;rounded=0;" vertex="1" parent="1">
          <mxGeometry x="240" y="35" width="60" height="45" as="geometry" />
        </mxCell>
        <mxCell id="k610ou3Cfi4nWN4WsVvH-13" style="edgeStyle=orthogonalEdgeStyle;rounded=0;orthogonalLoop=1;jettySize=auto;html=1;exitX=1;exitY=0.5;exitDx=0;exitDy=0;entryX=0;entryY=0.25;entryDx=0;entryDy=0;" edge="1" parent="1" source="k610ou3Cfi4nWN4WsVvH-11" target="k610ou3Cfi4nWN4WsVvH-3">
          <mxGeometry relative="1" as="geometry" />
        </mxCell>
        <mxCell id="k610ou3Cfi4nWN4WsVvH-11" value="Server: Here is the World IP" style="text;html=1;align=center;verticalAlign=middle;whiteSpace=wrap;rounded=0;" vertex="1" parent="1">
          <mxGeometry x="240" y="130" width="60" height="30" as="geometry" />
        </mxCell>
        <mxCell id="k610ou3Cfi4nWN4WsVvH-16" style="edgeStyle=orthogonalEdgeStyle;rounded=0;orthogonalLoop=1;jettySize=auto;html=1;exitX=0;exitY=0.5;exitDx=0;exitDy=0;entryX=1;entryY=0.5;entryDx=0;entryDy=0;" edge="1" parent="1" source="k610ou3Cfi4nWN4WsVvH-14" target="k610ou3Cfi4nWN4WsVvH-2">
          <mxGeometry relative="1" as="geometry" />
        </mxCell>
        <mxCell id="k610ou3Cfi4nWN4WsVvH-14" value="Client: What is on this world" style="text;html=1;align=center;verticalAlign=middle;whiteSpace=wrap;rounded=0;" vertex="1" parent="1">
          <mxGeometry x="230" y="200" width="60" height="30" as="geometry" />
        </mxCell>
        <mxCell id="k610ou3Cfi4nWN4WsVvH-19" style="edgeStyle=orthogonalEdgeStyle;rounded=0;orthogonalLoop=1;jettySize=auto;html=1;exitX=1;exitY=0.5;exitDx=0;exitDy=0;entryX=0;entryY=0.75;entryDx=0;entryDy=0;" edge="1" parent="1" source="k610ou3Cfi4nWN4WsVvH-17" target="k610ou3Cfi4nWN4WsVvH-3">
          <mxGeometry relative="1" as="geometry" />
        </mxCell>
        <mxCell id="k610ou3Cfi4nWN4WsVvH-17" value="World: I will tell you in a .json" style="text;html=1;align=center;verticalAlign=middle;whiteSpace=wrap;rounded=0;" vertex="1" parent="1">
          <mxGeometry x="230" y="260" width="60" height="30" as="geometry" />
        </mxCell>
        <mxCell id="k610ou3Cfi4nWN4WsVvH-26" style="edgeStyle=orthogonalEdgeStyle;rounded=0;orthogonalLoop=1;jettySize=auto;html=1;exitX=0;exitY=0.5;exitDx=0;exitDy=0;entryX=1;entryY=0.5;entryDx=0;entryDy=0;" edge="1" parent="1" source="k610ou3Cfi4nWN4WsVvH-20" target="k610ou3Cfi4nWN4WsVvH-2">
          <mxGeometry relative="1" as="geometry" />
        </mxCell>
        <mxCell id="k610ou3Cfi4nWN4WsVvH-20" value="Client: I want to move this way" style="text;html=1;align=center;verticalAlign=middle;whiteSpace=wrap;rounded=0;" vertex="1" parent="1">
          <mxGeometry x="230" y="330" width="60" height="30" as="geometry" />
        </mxCell>
        <mxCell id="k610ou3Cfi4nWN4WsVvH-24" style="edgeStyle=orthogonalEdgeStyle;rounded=0;orthogonalLoop=1;jettySize=auto;html=1;exitX=1;exitY=0.5;exitDx=0;exitDy=0;entryX=0;entryY=0.75;entryDx=0;entryDy=0;" edge="1" parent="1" source="k610ou3Cfi4nWN4WsVvH-23" target="k610ou3Cfi4nWN4WsVvH-3">
          <mxGeometry relative="1" as="geometry" />
        </mxCell>
        <mxCell id="k610ou3Cfi4nWN4WsVvH-23" value="World: Here&#39;s the valid movement" style="text;html=1;align=center;verticalAlign=middle;whiteSpace=wrap;rounded=0;" vertex="1" parent="1">
          <mxGeometry x="230" y="394" width="60" height="30" as="geometry" />
        </mxCell>
        <mxCell id="k610ou3Cfi4nWN4WsVvH-30" style="edgeStyle=orthogonalEdgeStyle;rounded=0;orthogonalLoop=1;jettySize=auto;html=1;exitX=0.5;exitY=1;exitDx=0;exitDy=0;entryX=0.5;entryY=0;entryDx=0;entryDy=0;" edge="1" parent="1" source="k610ou3Cfi4nWN4WsVvH-28" target="k610ou3Cfi4nWN4WsVvH-2">
          <mxGeometry relative="1" as="geometry" />
        </mxCell>
        <mxCell id="k610ou3Cfi4nWN4WsVvH-28" value="Server: Here is the new player&#39;s ID tell them what they have" style="text;html=1;align=center;verticalAlign=middle;whiteSpace=wrap;rounded=0;" vertex="1" parent="1">
          <mxGeometry x="60" y="150" width="60" height="110" as="geometry" />
        </mxCell>
        <mxCell id="k610ou3Cfi4nWN4WsVvH-33" style="edgeStyle=orthogonalEdgeStyle;rounded=0;orthogonalLoop=1;jettySize=auto;html=1;exitX=0;exitY=0.5;exitDx=0;exitDy=0;entryX=1;entryY=0.5;entryDx=0;entryDy=0;" edge="1" parent="1" source="k610ou3Cfi4nWN4WsVvH-31" target="k610ou3Cfi4nWN4WsVvH-2">
          <mxGeometry relative="1" as="geometry" />
        </mxCell>
        <mxCell id="k610ou3Cfi4nWN4WsVvH-31" value="Client: what&#39;s in my inventory" style="text;html=1;align=center;verticalAlign=middle;whiteSpace=wrap;rounded=0;" vertex="1" parent="1">
          <mxGeometry x="230" y="460" width="60" height="30" as="geometry" />
        </mxCell>
        <mxCell id="k610ou3Cfi4nWN4WsVvH-36" style="edgeStyle=orthogonalEdgeStyle;rounded=0;orthogonalLoop=1;jettySize=auto;html=1;exitX=0;exitY=0.5;exitDx=0;exitDy=0;entryX=1;entryY=0.5;entryDx=0;entryDy=0;" edge="1" parent="1" source="k610ou3Cfi4nWN4WsVvH-34" target="k610ou3Cfi4nWN4WsVvH-2">
          <mxGeometry relative="1" as="geometry" />
        </mxCell>
        <mxCell id="k610ou3Cfi4nWN4WsVvH-34" value="World: This: items.json" style="text;html=1;align=center;verticalAlign=middle;whiteSpace=wrap;rounded=0;" vertex="1" parent="1">
          <mxGeometry x="230" y="520" width="60" height="30" as="geometry" />
        </mxCell>
      </root>
    </mxGraphModel>
  </diagram>
</mxfile>
